<svg width="44" height="44" viewBox="0 0 44 44" fill="none" xmlns="http://www.w3.org/2000/svg">
<g clip-path="url(#clip0)">
<path d="M40.1451 3.85358C34.7697 -1.51579 26.2516 -1.71345 18.4648 6.06475C11.7093 12.8126 13.2244 11.3001 11.0957 13.4262C5.8999 18.6159 5.04654 26.3881 5.62662 31.5736L20.9613 16.2552C21.4993 15.7181 22.3707 15.7181 22.9078 16.2552C23.4449 16.7923 23.4449 17.6629 22.9078 18.2L0.605295 40.4793C-0.200799 41.2845 -0.200799 42.5908 0.605295 43.396C1.41139 44.2012 2.71936 44.2012 3.52545 43.396L9.20592 37.7215C13.7004 39.0716 23.9768 39.283 30.4179 33.0001H21.9797L34.6614 28.7772C38.9575 24.4863 37.7879 25.668 38.6412 24.7501H30.2382L41.5425 20.9861C45.4475 14.5872 44.491 8.19514 40.1451 3.85358Z" fill="#00AFF2"/>
</g>
<defs>
<clipPath id="clip0">
<rect width="44" height="44" fill="white"/>
</clipPath>
</defs>
</svg>
