<svg width="26" height="26" viewBox="0 0 26 26" fill="none" xmlns="http://www.w3.org/2000/svg">
<path d="M13 26C20.1797 26 26 20.1797 26 13C26 5.8203 20.1797 0 13 0C5.8203 0 0 5.8203 0 13C0 20.1797 5.8203 26 13 26Z" fill="#4176FA"/>
<path d="M17.6603 10.7387C13.9054 10.7387 13.9006 14.4794 13.9006 14.4986C13.9006 14.4986 13.6433 18.244 17.6603 18.244C17.6603 18.244 21.0103 18.4345 21.0103 15.6374H19.2901C19.2901 15.6374 19.3471 16.6904 17.7175 16.6904C17.7175 16.6904 15.9973 16.8049 15.9973 14.9892H21.0675C21.0675 14.9892 21.6251 10.7387 17.6603 10.7387ZM15.9781 13.6787C15.9781 13.6787 16.1878 12.1729 17.6985 12.1729C19.2138 12.1729 19.19 13.6787 19.19 13.6787H15.9781ZM11.6803 12.7163C11.6803 12.7163 13.1717 12.6067 13.1717 10.8532C13.1717 9.10447 11.9519 8.24658 10.4032 8.24658H5.3089V18.0389H10.4027C10.4027 18.0389 13.5145 18.1344 13.5145 15.1466C13.5147 15.1466 13.6482 12.7163 11.6803 12.7163ZM7.55351 9.98577H10.4029C10.4029 9.98577 11.094 9.98577 11.094 11.0054C11.094 12.0251 10.6889 12.1729 10.2266 12.1729H7.55351V9.98577ZM10.2602 16.2997H7.55351V13.6787H10.4029C10.4029 13.6787 11.4372 13.6692 11.4323 15.0272C11.4323 16.1711 10.6653 16.2902 10.2602 16.2997ZM15.554 8.82314V10.0289H19.595V8.82314H15.554Z" fill="white"/>
</svg>
