<svg width="34" height="34" viewBox="0 0 34 34" fill="none" xmlns="http://www.w3.org/2000/svg">
<circle cx="17" cy="17" r="17" fill="#181ACF"/>
<g clip-path="url(#clip0)">
<path d="M25.4789 16.1065H24.4478C23.9754 12.9256 21.4608 10.411 18.2798 9.93859V8.9075C18.2798 8.68246 18.0974 8.50001 17.8723 8.50001H16.514C16.289 8.50001 16.1065 8.68246 16.1065 8.9075V9.93859C12.9255 10.411 10.411 12.9256 9.93859 16.1065H8.90749C8.68245 16.1065 8.5 16.289 8.5 16.514V17.8723C8.5 18.0974 8.68245 18.2798 8.90749 18.2798H9.93859C10.411 21.4608 12.9255 23.9754 16.1065 24.4478V25.4789C16.1065 25.7039 16.289 25.8864 16.514 25.8864H17.8723C18.0974 25.8864 18.2798 25.7039 18.2798 25.4789V24.4478C21.4608 23.9754 23.9754 21.4608 24.4478 18.2798H25.4789C25.7039 18.2798 25.8864 18.0974 25.8864 17.8723V16.514C25.8864 16.289 25.7039 16.1065 25.4789 16.1065ZM18.2798 22.2405V20.8606C18.2798 20.6356 18.0974 20.4531 17.8723 20.4531H16.514C16.289 20.4531 16.1065 20.6356 16.1065 20.8606V22.2405C14.1311 21.8193 12.5676 20.2576 12.1459 18.2798H13.5257C13.7508 18.2798 13.9332 18.0974 13.9332 17.8723V16.514C13.9332 16.289 13.7508 16.1065 13.5257 16.1065H12.1459C12.5671 14.1311 14.1287 12.5676 16.1065 12.1459V13.5258C16.1065 13.7508 16.289 13.9332 16.514 13.9332H17.8723C18.0974 13.9332 18.2798 13.7508 18.2798 13.5258V12.1459C20.2553 12.5671 21.8188 14.1287 22.2405 16.1065H20.8606C20.6356 16.1065 20.4531 16.289 20.4531 16.514V17.8723C20.4531 18.0974 20.6356 18.2798 20.8606 18.2798H22.2405C21.8193 20.2553 20.2576 21.8188 18.2798 22.2405ZM18.2798 17.1932C18.2798 17.7933 17.7933 18.2798 17.1932 18.2798C16.593 18.2798 16.1065 17.7933 16.1065 17.1932C16.1065 16.5931 16.593 16.1065 17.1932 16.1065C17.7933 16.1065 18.2798 16.5931 18.2798 17.1932Z" fill="white"/>
</g>
<defs>
<clipPath id="clip0">
<rect width="17.3864" height="17.3864" fill="white" transform="translate(8.5 8.50001)"/>
</clipPath>
</defs>
</svg>
