<svg width="34" height="34" viewBox="0 0 34 34" fill="none" xmlns="http://www.w3.org/2000/svg">
<circle cx="17" cy="17" r="17" fill="#3335CF"/>
<g clip-path="url(#clip0)">
<path d="M14.3136 18.61C13.1026 18.6879 12.0036 19.1491 11.38 20.7924C11.3091 20.9798 11.1385 21.0936 10.9396 21.0936C10.6042 21.0936 9.5674 20.2584 9.27189 20.0568C9.27219 22.5425 10.4171 24.7273 13.1358 24.7273C15.4256 24.7273 16.9995 23.4061 16.9995 21.0994C16.9995 21.0055 16.9798 20.9159 16.9702 20.8238L14.3136 18.61ZM23.0934 9.27272C22.6358 9.27272 22.2069 9.47526 21.8797 9.76926C15.7097 15.281 15.0676 15.4105 15.0676 17.0329C15.0676 17.4464 15.1657 17.8406 15.3312 18.201L17.2575 19.8063C17.4752 19.8606 17.6994 19.8977 17.9334 19.8977C19.8081 19.8977 20.8948 18.5252 24.3072 12.1566C24.5299 11.7234 24.7267 11.2556 24.7267 10.7684C24.7267 9.89574 23.9419 9.27272 23.0934 9.27272Z" fill="white"/>
</g>
<defs>
<clipPath id="clip0">
<rect width="15.4545" height="15.4545" fill="white" transform="translate(9.27274 9.27272)"/>
</clipPath>
</defs>
</svg>
