<svg width="34" height="34" viewBox="0 0 34 34" fill="none" xmlns="http://www.w3.org/2000/svg">
<circle cx="17" cy="17" r="17" fill="#181ACF"/>
<g clip-path="url(#clip0)">
<path d="M15.9497 9.81001L13.9763 13.8065L9.56117 14.4494C8.7694 14.5641 8.45209 15.5391 9.02627 16.0975L12.2205 19.2065L11.465 23.5984C11.329 24.3922 12.1661 24.9869 12.8672 24.6156L16.817 22.5419L20.7667 24.6156C21.4678 24.9838 22.3049 24.3922 22.1689 23.5984L21.4134 19.2065L24.6077 16.0975C25.1819 15.5391 24.8646 14.5641 24.0728 14.4494L19.6577 13.8065L17.6843 9.81001C17.3307 9.09765 16.3063 9.0886 15.9497 9.81001Z" fill="white"/>
</g>
<defs>
<clipPath id="clip0">
<rect width="17.4067" height="15.4545" fill="white" transform="translate(8.11365 9.27272)"/>
</clipPath>
</defs>
</svg>
