<svg width="26" height="26" viewBox="0 0 26 26" fill="none" xmlns="http://www.w3.org/2000/svg">
<circle cx="12.74" cy="12.7401" r="10.66" fill="white"/>
<path d="M16.8745 6.91748H9.12533C7.88845 6.91748 6.88214 7.92379 6.88214 9.16067V16.9099C6.88214 18.1467 7.88845 19.1533 9.12533 19.1533H16.8745C18.1114 19.1533 19.118 18.147 19.118 16.9099V9.16067C19.118 7.92379 18.1117 6.91748 16.8745 6.91748ZM12.9999 17.0634C10.779 17.0634 8.97209 15.2564 8.97209 13.0353C8.97209 10.8144 10.779 9.00743 12.9999 9.00743C15.2211 9.00743 17.028 10.8144 17.028 13.0353C17.028 15.2561 15.2208 17.0634 12.9999 17.0634ZM17.1575 9.84023C16.6318 9.84023 16.2042 9.41268 16.2042 8.88722C16.2042 8.36176 16.6318 7.93421 17.1575 7.93421C17.683 7.93421 18.1105 8.36176 18.1105 8.88722C18.1105 9.41268 17.683 9.84023 17.1575 9.84023Z" fill="#E25048"/>
<path d="M12.9998 10.7095C11.7177 10.7095 10.6738 11.7529 10.6738 13.0349C10.6738 14.3176 11.7177 15.3612 12.9998 15.3612C14.2824 15.3612 15.3255 14.3176 15.3255 13.0349C15.3255 11.7531 14.2822 10.7095 12.9998 10.7095Z" fill="#E25048"/>
<path d="M13 0C5.82058 0 0 5.82058 0 13C0 20.1794 5.82058 26 13 26C20.1794 26 26 20.1794 26 13C26 5.82058 20.1794 0 13 0ZM20.8199 16.9096C20.8199 19.0853 19.0503 20.8549 16.8746 20.8549H9.1254C6.95 20.8549 5.18013 19.0853 5.18013 16.9096V9.16045C5.18013 6.98505 6.95 5.21518 9.1254 5.21518H16.8746C19.0503 5.21518 20.8199 6.98505 20.8199 9.16045V16.9096Z" fill="#E25048"/>
</svg>
