<svg width="109" height="109" viewBox="0 0 109 109" fill="none" xmlns="http://www.w3.org/2000/svg">
<g filter="url(#filter0_d)">
<circle cx="54.5" cy="50.5" r="34.5" fill="white"/>
</g>
<g clip-path="url(#clip0)">
<path d="M49.1031 57.2805C51.8288 54.5547 52.5562 52.6164 53.3257 50.5618C54.1546 48.3516 55.0124 46.0664 58.1203 42.9571C61.2281 39.8477 63.5148 38.9907 65.7257 38.1618C67.5913 37.4586 69.3695 36.7805 71.7249 34.6172L68.782 31.6961C68.3708 31.2914 67.8287 31.0468 67.2532 31.0063C66.6778 30.9658 66.1067 31.132 65.6429 31.475C64.5773 32.2641 63.6781 32.5993 62.4398 33.061C51.2968 37.2125 48.3484 45.9446 47.6757 47.7266C45.3515 53.8852 40.6796 55.1235 39.9632 55.3899C38.021 56.1133 35.6874 56.9821 32.8484 59.3243C31.7656 60.2188 31.7163 61.8594 32.7085 62.8446L35.5023 65.6188C38.2499 63.0719 40.3593 62.2618 42.3906 61.4993C44.4429 60.7305 46.3796 60.0055 49.1031 57.2805ZM76.2906 39.1555L73.4976 36.3813C70.7484 38.9305 68.6398 39.7407 66.6031 40.5055C64.5515 41.275 62.614 42.0024 59.8882 44.7243C57.1624 47.4461 56.4359 49.3875 55.6695 51.443C54.8382 53.6563 53.9796 55.9391 50.871 59.0469C47.7624 62.1547 45.4804 63.0102 43.2695 63.8375C41.4054 64.5407 39.6281 65.2172 37.2757 67.3789L40.2195 70.3032C40.6307 70.7077 41.1729 70.9522 41.7483 70.9926C42.3238 71.033 42.8948 70.8666 43.3585 70.5235C44.421 69.7375 45.3187 69.4032 46.557 68.9422C57.6663 64.8016 60.6195 56.1219 61.3179 54.2789C63.6406 48.1235 68.3124 46.8828 69.0312 46.6141C70.9742 45.8899 73.3078 45.0203 76.1492 42.6758C77.2343 41.7852 77.2835 40.1407 76.2914 39.1563L76.2906 39.1555Z" fill="#3335CF"/>
</g>
<defs>
<filter id="filter0_d" x="0" y="0" width="109" height="109" filterUnits="userSpaceOnUse" color-interpolation-filters="sRGB">
<feFlood flood-opacity="0" result="BackgroundImageFix"/>
<feColorMatrix in="SourceAlpha" type="matrix" values="0 0 0 0 0 0 0 0 0 0 0 0 0 0 0 0 0 0 127 0" result="hardAlpha"/>
<feOffset dy="4"/>
<feGaussianBlur stdDeviation="10"/>
<feComposite in2="hardAlpha" operator="out"/>
<feColorMatrix type="matrix" values="0 0 0 0 0 0 0 0 0 0 0 0 0 0 0 0 0 0 0.1 0"/>
<feBlend mode="normal" in2="BackgroundImageFix" result="effect1_dropShadow"/>
<feBlend mode="normal" in="SourceGraphic" in2="effect1_dropShadow" result="shape"/>
</filter>
<clipPath id="clip0">
<rect width="45" height="40" fill="white" transform="translate(32 31)"/>
</clipPath>
</defs>
</svg>
