<svg width="109" height="109" viewBox="0 0 109 109" fill="none" xmlns="http://www.w3.org/2000/svg">
<g filter="url(#filter0_d)">
<circle cx="54.5" cy="50.5" r="34.5" fill="white"/>
</g>
<path d="M37.852 58.664V52.9L32 43.264H36.862L40.03 48.874L43.22 43.264H47.994L42.142 52.834V58.664H37.852Z" fill="#3335CF"/>
<path d="M49.3064 58.664V43.264H61.6924V46.894H53.5304V49.226H60.9224V52.592H53.5304V55.034H61.8024V58.664H49.3064Z" fill="#3335CF"/>
<path d="M70.0303 58.928C67.1263 58.928 64.7209 58.0773 62.8143 56.376L65.1903 53.538C66.7303 54.77 68.3949 55.386 70.1843 55.386C71.3576 55.386 71.9443 55.0193 71.9443 54.286C71.9443 53.9633 71.7683 53.6993 71.4163 53.494C71.0643 53.274 70.3749 53.0467 69.3483 52.812C68.4096 52.592 67.6323 52.3793 67.0163 52.174C66.4149 51.954 65.8209 51.668 65.2343 51.316C64.6623 50.9493 64.2369 50.4873 63.9583 49.93C63.6796 49.3727 63.5403 48.7053 63.5403 47.928C63.5403 46.476 64.0756 45.2953 65.1463 44.386C66.2316 43.462 67.6836 43 69.5023 43C72.0249 43 74.1369 43.682 75.8383 45.046L73.7043 48.06C72.2669 47.048 70.8296 46.542 69.3923 46.542C68.8936 46.542 68.5123 46.6373 68.2483 46.828C67.9843 47.0187 67.8523 47.268 67.8523 47.576C67.8523 47.928 68.0283 48.2067 68.3803 48.412C68.7469 48.6173 69.4583 48.8373 70.5143 49.072C72.4503 49.4973 73.8876 50.0693 74.8263 50.788C75.7796 51.492 76.2563 52.5333 76.2563 53.912C76.2563 55.4667 75.6916 56.6913 74.5623 57.586C73.4329 58.4807 71.9223 58.928 70.0303 58.928Z" fill="#3335CF"/>
<defs>
<filter id="filter0_d" x="0" y="0" width="109" height="109" filterUnits="userSpaceOnUse" color-interpolation-filters="sRGB">
<feFlood flood-opacity="0" result="BackgroundImageFix"/>
<feColorMatrix in="SourceAlpha" type="matrix" values="0 0 0 0 0 0 0 0 0 0 0 0 0 0 0 0 0 0 127 0" result="hardAlpha"/>
<feOffset dy="4"/>
<feGaussianBlur stdDeviation="10"/>
<feComposite in2="hardAlpha" operator="out"/>
<feColorMatrix type="matrix" values="0 0 0 0 0 0 0 0 0 0 0 0 0 0 0 0 0 0 0.1 0"/>
<feBlend mode="normal" in2="BackgroundImageFix" result="effect1_dropShadow"/>
<feBlend mode="normal" in="SourceGraphic" in2="effect1_dropShadow" result="shape"/>
</filter>
</defs>
</svg>
