<svg width="26" height="26" viewBox="0 0 26 26" fill="none" xmlns="http://www.w3.org/2000/svg">
<path d="M13 26C20.1797 26 26 20.1797 26 13C26 5.8203 20.1797 0 13 0C5.8203 0 0 5.8203 0 13C0 20.1797 5.8203 26 13 26Z" fill="#1B1B43"/>
<g clip-path="url(#clip0)">
<path d="M19.0962 9.53223C18.3021 9.53223 17.5694 9.26916 16.9811 8.82538C16.3063 8.31665 15.8215 7.5704 15.6503 6.71028C15.6079 6.49777 15.585 6.27846 15.5829 6.05371H13.3145V12.252L13.3118 15.6471C13.3118 16.5548 12.7207 17.3244 11.9013 17.595C11.6635 17.6736 11.4067 17.7108 11.1393 17.6961C10.798 17.6774 10.4781 17.5744 10.2001 17.4081C9.60851 17.0542 9.20739 16.4124 9.19652 15.6781C9.1794 14.5304 10.1072 13.5948 11.254 13.5948C11.4804 13.5948 11.6978 13.6317 11.9013 13.6988V12.0047V11.3957C11.6866 11.3639 11.4682 11.3473 11.2472 11.3473C9.99196 11.3473 8.81796 11.8691 7.97877 12.8091C7.34449 13.5195 6.96402 14.4258 6.90532 15.3761C6.82842 16.6246 7.28524 17.8114 8.17118 18.687C8.30135 18.8155 8.43804 18.9348 8.58099 19.0449C9.34055 19.6294 10.2692 19.9463 11.2472 19.9463C11.4682 19.9463 11.6866 19.93 11.9013 19.8982C12.815 19.7629 13.658 19.3446 14.3233 18.687C15.1407 17.879 15.5924 16.8064 15.5973 15.6647L15.5856 10.5948C15.9755 10.8956 16.4019 11.1446 16.8596 11.3378C17.5713 11.6381 18.326 11.7903 19.1027 11.79V10.1429V9.53168C19.1032 9.53223 19.0967 9.53223 19.0962 9.53223Z" fill="white"/>
</g>
<defs>
<clipPath id="clip0">
<rect width="13.9141" height="13.9141" fill="white" transform="translate(6.04297 6.04297)"/>
</clipPath>
</defs>
</svg>
