<svg width="26" height="26" viewBox="0 0 26 26" fill="none" xmlns="http://www.w3.org/2000/svg">
<path d="M26 13C26 20.1795 20.1813 26 13.0012 26C5.82101 26 0 20.1795 0 13C0 5.82053 5.82101 0 13.0012 0C20.1814 0 26 5.82053 26 13Z" fill="#3335CF"/>
<path d="M13.1039 20.2489C9.53293 20.261 5.81613 17.2132 5.79953 12.317C5.78758 9.08071 7.53602 5.96393 9.76695 4.11529C11.9453 2.31445 14.9287 1.15611 17.6326 1.14648C17.9813 1.14648 18.3468 1.17516 18.5689 1.25157C16.2042 1.74119 14.322 3.9433 14.3292 6.43915C14.3292 6.52273 14.3363 6.61108 14.3458 6.6517C18.3037 7.61661 20.1 10.005 20.1119 13.3081C20.1215 16.6137 17.5131 20.2345 13.1037 20.2487" fill="white"/>
</svg>
